<svg xmlns="http://www.w3.org/2000/svg" xmlns:xlink="http://www.w3.org/1999/xlink" width="223.22835" height="311.81104">
  <defs>
    <pattern xlink:href="#a" id="b" patternTransform="matrix(0.70710678,-0.70710678,0.70710678,0.70710678,127.76526,536.84923)"/>
    <pattern patternUnits="userSpaceOnUse" width="16.771802" height="17.115901" patternTransform="translate(127.76526,536.84923)" id="a">
      <g fill="#d40000">
        <path d="M139.93132 538.16935l-1.53091 4.51447 2.85103 3.82044-4.7666-.0609-2.75244 3.89206-1.41502-4.55212-4.55212-1.41502 3.89206-2.75244-.0609-4.76659 3.82044 2.85102z" transform="translate(-127.76526,-536.84923) matrix(0.62548599,0,0,0.62548599,47.849879,201.05756)"/>
        <path transform="translate(-127.76526,-536.84923) matrix(0.312743,0.54168676,-0.54168676,0.312743,392.29373,297.90436)" d="M139.93132 538.16935l-1.53091 4.51447 2.85103 3.82044-4.7666-.0609-2.75244 3.89206-1.41502-4.55212-4.55212-1.41502 3.89206-2.75244-.0609-4.76659 3.82044 2.85102z"/>
        <path transform="translate(-127.76526,-536.84923) matrix(0.62548599,0,0,-0.62548599,47.849879,889.7568)" d="M139.93132 538.16935l-1.53091 4.51447 2.85103 3.82044-4.7666-.0609-2.75244 3.89206-1.41502-4.55212-4.55212-1.41502 3.89206-2.75244-.0609-4.76659 3.82044 2.85102z"/>
        <path d="M139.93132 538.16935l-1.53091 4.51447 2.85103 3.82044-4.7666-.0609-2.75244 3.89206-1.41502-4.55212-4.55212-1.41502 3.89206-2.75244-.0609-4.76659 3.82044 2.85102z" transform="translate(-127.76526,-536.84923) matrix(0.312743,-0.54168676,-0.54168676,-0.312743,392.29373,792.91)"/>
      </g>
    </pattern>
  </defs>
  <g transform="translate(-260.43307,-370.27557) translate(811.37551,-119.72681)" stroke="#d40000" stroke-linecap="round">
    <rect width="197.05205" height="286.64417" ry="0" x="-537.85431" y="502.58582" fill="none" stroke-width="4.95238304"/>
    <path fill="url(#b)" d="M-533.46661 506.45496h188.27672v278.90585h-188.27672z"/>
  </g>
</svg>
